<svg width="61" height="85" viewBox="0 0 61 85" fill="none" xmlns="http://www.w3.org/2000/svg">
<path d="M59.4774 69.744H60.4774V68.744H59.4774V69.744ZM59.4774 84V85H60.4774V84H59.4774ZM4.46938 84H3.46938V85H4.46938V84ZM4.46938 69.744V68.744H3.46938V69.744H4.46938ZM24.9174 69.744V70.744H25.9174V69.744H24.9174ZM24.9174 19.488H25.9174V16.488L24.1174 18.888L24.9174 19.488ZM20.8854 23.088L21.4501 23.9133L20.8854 23.088ZM7.92537 29.28L8.19501 30.243L8.21268 30.238L8.23015 30.2324L7.92537 29.28ZM1.58937 30.288H0.589375V31.288H1.58937V30.288ZM1.58937 15.456V14.456H0.589375V15.456H1.58937ZM8.21338 13.728L7.80724 12.8142L7.80076 12.8171L7.79432 12.82L8.21338 13.728ZM15.5574 9.696L15.0183 8.85372L15.0105 8.85876L15.0027 8.86395L15.5574 9.696ZM21.7494 5.088L21.1052 4.32308L21.095 4.3317L21.085 4.34058L21.7494 5.088ZM24.9174 1.77599V0.775993H24.258L23.9982 1.38208L24.9174 1.77599ZM41.1894 1.77599H42.1894V0.775993H41.1894V1.77599ZM41.1894 69.744H40.1894V70.744H41.1894V69.744ZM58.4774 69.744V84H60.4774V69.744H58.4774ZM59.4774 83H4.46938V85H59.4774V83ZM5.46938 84V69.744H3.46938V84H5.46938ZM4.46938 70.744H24.9174V68.744H4.46938V70.744ZM25.9174 69.744V19.488H23.9174V69.744H25.9174ZM24.1174 18.888C23.3442 19.9189 22.0974 21.0471 20.3207 22.2627L21.4501 23.9133C23.3214 22.6329 24.7625 21.3611 25.7174 20.088L24.1174 18.888ZM20.3207 22.2627C18.5433 23.4788 16.5725 24.6057 14.4059 25.6419L15.2688 27.4461C17.5183 26.3703 19.5795 25.1932 21.4501 23.9133L20.3207 22.2627ZM14.4059 25.6419C12.2401 26.6777 9.97856 27.573 7.6206 28.3276L8.23015 30.2324C10.6722 29.451 13.0186 28.5223 15.2688 27.4461L14.4059 25.6419ZM7.65574 28.317C5.31382 28.9728 3.29583 29.288 1.58937 29.288V31.288C3.53092 31.288 5.73693 30.9312 8.19501 30.243L7.65574 28.317ZM2.58937 30.288V15.456H0.589375V30.288H2.58937ZM1.58937 16.456C3.70255 16.456 6.05764 15.8243 8.63243 14.636L7.79432 12.82C5.37711 13.9357 3.3162 14.456 1.58937 14.456V16.456ZM8.61951 14.6418C11.262 13.4674 13.7598 12.0962 16.1121 10.528L15.0027 8.86395C12.7469 10.3678 10.3488 11.6846 7.80724 12.8142L8.61951 14.6418ZM16.0964 10.5383C18.5309 8.98021 20.6387 7.41318 22.4137 5.8354L21.085 4.34058C19.404 5.83482 17.3839 7.33978 15.0183 8.85372L16.0964 10.5383ZM22.3935 5.85291C23.3196 5.07304 24.0695 4.38732 24.632 3.79922C25.1726 3.23408 25.6173 2.68138 25.8365 2.16991L23.9982 1.38208C23.9294 1.54261 23.7022 1.87791 23.1867 2.41677C22.6933 2.93267 22.0031 3.56695 21.1052 4.32308L22.3935 5.85291ZM24.9174 2.77599H41.1894V0.775993H24.9174V2.77599ZM40.1894 1.77599V69.744H42.1894V1.77599H40.1894ZM41.1894 70.744H59.4774V68.744H41.1894V70.744Z" fill="black"/>
</svg>
