<svg width="69" height="86" viewBox="0 0 69 86" fill="none" xmlns="http://www.w3.org/2000/svg">
<path d="M1.24438 85H0.244375V86H1.24438V85ZM2.25238 73.768L3.23399 73.9589L3.23399 73.9589L2.25238 73.768ZM5.85238 64.12L6.71725 64.6222L6.72395 64.6103L5.85238 64.12ZM12.9084 55.48L13.5787 56.2221L13.5851 56.2162L13.5915 56.2103L12.9084 55.48ZM24.4284 47.416L23.9513 46.5371L23.9458 46.5402L24.4284 47.416ZM33.9324 42.376L34.391 43.2646L34.391 43.2646L33.9324 42.376ZM41.7084 37.912L42.2547 38.7496L42.2631 38.744L41.7084 37.912ZM47.1804 33.16L47.9523 33.7957L47.9612 33.7849L47.9697 33.7739L47.1804 33.16ZM45.1644 19.048L44.4707 19.7683L44.4843 19.7814L44.4984 19.7939L45.1644 19.048ZM26.5884 16.456L26.8916 17.4089L26.9043 17.4049L26.9169 17.4005L26.5884 16.456ZM20.6844 19.192L21.2058 20.0453L21.2121 20.0414L21.2184 20.0375L20.6844 19.192ZM12.4764 26.68L11.7198 27.3339L12.4844 28.2186L13.2398 27.3259L12.4764 26.68ZM2.39638 15.016L1.65644 14.3433L1.06018 14.9992L1.63976 15.6699L2.39638 15.016ZM6.86038 11.128L7.46643 11.9234L7.47182 11.9193L6.86038 11.128ZM14.3484 6.52L13.9128 5.61976L13.9012 5.62557L14.3484 6.52ZM24.4284 2.91999L24.6768 3.88866L24.6883 3.88569L24.6998 3.88244L24.4284 2.91999ZM49.0524 3.208L48.7287 4.15416L48.7434 4.1592L48.7583 4.16378L49.0524 3.208ZM58.4124 8.10399L57.7664 8.86738L57.7735 8.87337L57.7807 8.87923L58.4124 8.10399ZM64.3164 15.736L63.4049 16.1476L63.4102 16.1589L64.3164 15.736ZM64.1724 34.6L65.0606 35.0594L65.0606 35.0594L64.1724 34.6ZM51.9324 47.416L52.4321 48.2822L52.4444 48.2751L52.4565 48.2677L51.9324 47.416ZM45.0204 51.16L45.4503 52.0629L45.459 52.0587L45.4676 52.0544L45.0204 51.16ZM38.1084 54.616L38.5556 55.5104L38.5622 55.5071L38.5687 55.5038L38.1084 54.616ZM30.7644 59.08L31.3267 59.9069L31.3378 59.8994L31.3487 59.8915L30.7644 59.08ZM24.2844 64.408L23.5773 63.7009L23.5773 63.7009L24.2844 64.408ZM20.2524 70.744L19.3037 70.4278L18.8649 71.744H20.2524V70.744ZM67.9164 70.744H68.9164V69.744H67.9164V70.744ZM67.9164 85V86H68.9164V85H67.9164ZM2.24438 85C2.24438 81.023 2.57583 77.3437 3.23399 73.9589L1.27076 73.5771C0.584921 77.1043 0.244375 80.913 0.244375 85H2.24438ZM3.23399 73.9589C3.88519 70.6098 5.0465 67.4994 6.71716 64.6221L4.98759 63.6179C3.20225 66.6926 1.96356 70.0141 1.27076 73.5771L3.23399 73.9589ZM6.72395 64.6103C8.39217 61.6445 10.672 58.8474 13.5787 56.2221L12.2381 54.7379C9.19271 57.4886 6.76858 60.4515 4.9808 63.6297L6.72395 64.6103ZM13.5915 56.2103C16.4913 53.4976 20.2581 50.8557 24.911 48.2918L23.9458 46.5402C19.1907 49.1603 15.2774 51.8944 12.2252 54.7497L13.5915 56.2103ZM24.9055 48.2949C28.2602 46.4737 31.422 44.797 34.391 43.2646L33.4737 41.4874C30.4908 43.027 27.3166 44.7103 23.9513 46.5371L24.9055 48.2949ZM34.391 43.2646C37.3895 41.717 40.012 40.2122 42.2546 38.7496L41.1621 37.0744C38.9888 38.4918 36.4273 39.963 33.4737 41.4874L34.391 43.2646ZM42.2631 38.744C44.625 37.1694 46.5301 35.5227 47.9523 33.7957L46.4084 32.5243C45.1427 34.0613 43.3998 35.5825 41.1537 37.0799L42.2631 38.744ZM47.9697 33.7739C49.4515 31.8688 50.1964 29.6843 50.1964 27.256H48.1964C48.1964 29.2437 47.5972 30.9952 46.391 32.5461L47.9697 33.7739ZM50.1964 27.256C50.1964 23.8492 48.6905 20.8557 45.8304 18.3021L44.4984 19.7939C47.0142 22.0403 48.1964 24.5188 48.1964 27.256H50.1964ZM45.858 18.3277C43.0176 15.5924 38.9376 14.304 33.7884 14.304V16.304C38.6231 16.304 42.1272 17.5116 44.4707 19.7683L45.858 18.3277ZM33.7884 14.304C31.0966 14.304 28.5843 14.703 26.2599 15.5115L26.9169 17.4005C29.0084 16.673 31.2961 16.304 33.7884 16.304V14.304ZM26.2852 15.5031C24.0942 16.2002 22.0484 17.1478 20.1504 18.3465L21.2184 20.0375C22.9684 18.9322 24.8585 18.0558 26.8916 17.4089L26.2852 15.5031ZM20.1629 18.3387C18.3719 19.4333 16.7727 20.6815 15.3693 22.0849L16.7835 23.4991C18.0681 22.2145 19.5409 21.0627 21.2058 20.0453L20.1629 18.3387ZM15.3693 22.0849C14.0087 23.4454 12.7895 24.7618 11.713 26.0341L13.2398 27.3259C14.2753 26.1022 15.456 24.8266 16.7835 23.4991L15.3693 22.0849ZM13.233 26.0261L3.15299 14.3621L1.63976 15.6699L11.7198 27.3339L13.233 26.0261ZM3.13631 15.6887C4.03575 14.6993 5.46775 13.4462 7.46642 11.9234L6.25433 10.3326C4.221 11.8818 2.677 13.2207 1.65644 14.3433L3.13631 15.6887ZM7.47182 11.9193C9.52334 10.334 11.9621 8.83116 14.7956 7.41443L13.9012 5.62557C10.9746 7.08883 8.42141 8.65798 6.24893 10.3367L7.47182 11.9193ZM14.7839 7.42016C17.6909 6.01355 20.9867 4.83482 24.6768 3.88866L24.18 1.95133C20.382 2.92518 16.9578 4.14645 13.9128 5.61984L14.7839 7.42016ZM24.6998 3.88244C28.3445 2.85446 32.332 2.336 36.6684 2.336V0.335996C32.1728 0.335996 28.0002 0.873531 24.1569 1.95754L24.6998 3.88244ZM36.6684 2.336C41.1871 2.336 45.203 2.94799 48.7287 4.15416L49.3761 2.26183C45.6058 0.972005 41.3656 0.335996 36.6684 0.335996V2.336ZM48.7583 4.16378C52.3983 5.28377 55.3918 6.85809 57.7664 8.86738L59.0583 7.34061C56.4409 5.1259 53.1945 3.43622 49.3465 2.25222L48.7583 4.16378ZM57.7807 8.87923C60.2555 10.8958 62.1264 13.3163 63.405 16.1476L65.2277 15.3244C63.8184 12.2037 61.7532 9.53624 59.044 7.32876L57.7807 8.87923ZM63.4102 16.1589C64.6889 18.8989 65.3324 21.8736 65.3324 25.096H67.3324C67.3324 21.5984 66.6319 18.3331 65.2226 15.3131L63.4102 16.1589ZM65.3324 25.096C65.3324 28.5096 64.6414 31.5165 63.2842 34.1406L65.0606 35.0594C66.5833 32.1155 67.3324 28.7864 67.3324 25.096H65.3324ZM63.2842 34.1406C61.8891 36.8377 60.173 39.2012 58.1373 41.2369L59.5515 42.6511C61.7398 40.4628 63.5757 37.9303 65.0606 35.0594L63.2842 34.1406ZM58.1373 41.2369C56.0794 43.2948 53.8366 45.07 51.4083 46.5643L52.4565 48.2677C55.0202 46.69 57.3854 44.8172 59.5515 42.6511L58.1373 41.2369ZM51.4327 46.5498C48.9503 47.982 46.664 49.2201 44.5732 50.2656L45.4676 52.0544C47.6007 50.9879 49.9225 49.73 52.4321 48.2822L51.4327 46.5498ZM44.5904 50.2571C42.5617 51.2232 40.2472 52.3805 37.6481 53.7282L38.5687 55.5038C41.1535 54.1635 43.4471 53.0168 45.4503 52.0629L44.5904 50.2571ZM37.6612 53.7216C35.1146 54.9949 32.6209 56.5111 30.1801 58.2685L31.3487 59.8915C33.7078 58.1929 36.1102 56.7331 38.5556 55.5104L37.6612 53.7216ZM30.2021 58.2531C27.7537 59.918 25.5446 61.7336 23.5773 63.7009L24.9915 65.1151C26.8642 63.2424 28.9751 61.506 31.3267 59.9069L30.2021 58.2531ZM23.5773 63.7009C21.5606 65.7176 20.1263 67.9599 19.3037 70.4278L21.2011 71.0602C21.9144 68.9201 23.1682 66.9384 24.9915 65.1151L23.5773 63.7009ZM20.2524 71.744H67.9164V69.744H20.2524V71.744ZM66.9164 70.744V85H68.9164V70.744H66.9164ZM67.9164 84H1.24438V86H67.9164V84Z" fill="black"/>
</svg>
