<svg width="72" height="107" viewBox="0 0 72 107" fill="none" xmlns="http://www.w3.org/2000/svg">
<path d="M50.6204 50.016L50.4505 49.0305L50.4304 50.9978L50.6204 50.016ZM58.8284 53.184L58.3043 54.0357L58.3164 54.0431L58.3287 54.0502L58.8284 53.184ZM69.1964 66.288L68.2477 66.6042L68.2477 66.6042L69.1964 66.288ZM68.0444 87.744L67.1451 87.3065L67.1381 87.321L67.1316 87.3356L68.0444 87.744ZM60.8444 97.104L60.2111 96.33L60.2053 96.3348L60.1995 96.3397L60.8444 97.104ZM49.6124 103.008L49.3212 102.051L49.3118 102.054L49.3024 102.057L49.6124 103.008ZM15.4844 101.28L15.9064 100.373L15.8999 100.37L15.8934 100.367L15.4844 101.28ZM2.09238 90.336L1.34225 89.6747L0.821948 90.2649L1.27314 90.9095L2.09238 90.336ZM11.7404 79.392L12.5793 78.8478L11.862 77.7419L10.9903 78.7307L11.7404 79.392ZM20.6684 87.744L21.1521 86.8688L21.1521 86.8688L20.6684 87.744ZM49.0364 86.736L48.4224 85.9466L48.4117 85.9551L49.0364 86.736ZM48.4604 61.536L47.824 62.3074L47.824 62.3074L48.4604 61.536ZM27.5804 56.784H26.5804V57.784H27.5804V56.784ZM27.5804 44.4V43.4H26.5804V44.4H27.5804ZM46.7324 39.936L47.3849 40.6938L47.3909 40.6886L47.3967 40.6834L46.7324 39.936ZM47.3084 18.336L46.7247 19.148L46.7332 19.1541L46.7418 19.16L47.3084 18.336ZM22.3964 18.192L22.8877 19.063L22.8877 19.063L22.3964 18.192ZM13.4684 27.264L12.7324 27.9411L13.666 28.9557L14.3405 27.7532L13.4684 27.264ZM3.53238 16.464L2.6686 15.9601L2.29663 16.5978L2.79644 17.1411L3.53238 16.464ZM9.00438 10.272L9.62508 11.056L9.63492 11.0483L9.64456 11.0402L9.00438 10.272ZM16.7804 5.376L17.2033 6.28227L17.2159 6.27616L16.7804 5.376ZM26.2844 2.208L26.4805 3.18858L26.4909 3.18649L26.5013 3.18418L26.2844 2.208ZM49.7564 2.928L49.4473 3.87906L49.4541 3.88123L49.7564 2.928ZM59.8364 8.112L59.215 8.8955L59.2214 8.9006L59.2279 8.9056L59.8364 8.112ZM63.7244 41.952L62.9331 41.3405L62.9242 41.3521L62.9156 41.3638L63.7244 41.952ZM58.1084 47.28L58.6283 48.1342L58.6416 48.1261L58.6546 48.1176L58.1084 47.28ZM50.4304 50.9978C53.2922 51.5517 55.9144 52.565 58.3043 54.0357L59.3525 52.3323C56.7503 50.731 53.9006 49.6323 50.8104 49.0342L50.4304 50.9978ZM58.3287 54.0502C60.7167 55.4279 62.7301 57.1681 64.3769 59.2723L65.9519 58.0397C64.1427 55.7279 61.932 53.8201 59.3281 52.3178L58.3287 54.0502ZM64.3769 59.2723C66.0288 61.3831 67.3209 63.8237 68.2477 66.6042L70.1451 65.9718C69.1519 62.9923 67.756 60.3449 65.9519 58.0397L64.3769 59.2723ZM68.2477 66.6042C69.1703 69.372 69.6364 72.3841 69.6364 75.648H71.6364C71.6364 72.1919 71.1425 68.964 70.1451 65.9718L68.2477 66.6042ZM69.6364 75.648C69.6364 80.03 68.798 83.909 67.1451 87.3065L68.9436 88.1815C70.7468 84.475 71.6364 80.29 71.6364 75.648H69.6364ZM67.1316 87.3356C65.5646 90.8382 63.2618 93.834 60.2111 96.33L61.4776 97.878C64.7629 95.19 67.2601 91.9458 68.9572 88.1524L67.1316 87.3356ZM60.1995 96.3397C57.2454 98.8322 53.6266 100.741 49.3212 102.051L49.9035 103.965C54.4301 102.587 58.2993 100.56 61.4892 97.8683L60.1995 96.3397ZM49.3024 102.057C45.0025 103.459 40.1653 104.168 34.7804 104.168V106.168C40.3394 106.168 45.3903 105.437 49.9224 103.959L49.3024 102.057ZM34.7804 104.168C27.6031 104.168 21.3197 102.893 15.9064 100.373L15.0623 102.187C20.7851 104.851 27.3656 106.168 34.7804 106.168V104.168ZM15.8934 100.367C10.4831 97.9422 6.16362 94.4083 2.91161 89.7625L1.27314 90.9095C4.74113 95.8637 9.34962 99.6258 15.0753 102.193L15.8934 100.367ZM2.8425 90.9973L12.4905 80.0533L10.9903 78.7307L1.34225 89.6747L2.8425 90.9973ZM10.9014 79.9362C13.2934 83.6238 16.3905 86.5225 20.1847 88.6192L21.1521 86.8688C17.6502 84.9335 14.7954 82.2642 12.5793 78.8478L10.9014 79.9362ZM20.1847 88.6192C24.0222 90.74 28.8099 91.768 34.4924 91.768V89.768C29.0389 89.768 24.6105 88.78 21.1521 86.8688L20.1847 88.6192ZM34.4924 91.768C40.9519 91.768 46.057 90.4001 49.6611 87.5169L48.4117 85.9551C45.2957 88.4479 40.7048 89.768 34.4924 89.768V91.768ZM49.6503 87.5254C53.4055 84.6047 55.2204 80.2466 55.2204 74.64H53.2204C53.2204 79.7854 51.5793 83.4913 48.4224 85.9466L49.6503 87.5254ZM55.2204 74.64C55.2204 68.8134 53.1962 64.1466 49.0968 60.7646L47.824 62.3074C51.4046 65.2614 53.2204 69.3306 53.2204 74.64H55.2204ZM49.0968 60.7646C45.0067 57.3903 39.0761 55.784 31.4684 55.784V57.784C38.8366 57.784 44.2341 59.3457 47.824 62.3074L49.0968 60.7646ZM31.4684 55.784H27.5804V57.784H31.4684V55.784ZM28.5804 56.784V44.4H26.5804V56.784H28.5804ZM27.5804 45.4H31.9004V43.4H27.5804V45.4ZM31.9004 45.4C38.4746 45.4 43.6852 43.8796 47.3849 40.6938L46.0799 39.1782C42.8675 41.9444 38.1902 43.4 31.9004 43.4V45.4ZM47.3967 40.6834C51.0654 37.4224 52.9164 33.3108 52.9164 28.416H50.9164C50.9164 32.7372 49.3114 36.3056 46.068 39.1886L47.3967 40.6834ZM52.9164 28.416C52.9164 23.5666 51.2835 19.8553 47.8749 17.512L46.7418 19.16C49.4773 21.0407 50.9164 24.0494 50.9164 28.416H52.9164ZM47.892 17.524C44.606 15.1622 40.4003 14.024 35.3564 14.024V16.024C40.1045 16.024 43.8667 17.0938 46.7247 19.148L47.892 17.524ZM35.3564 14.024C30.3125 14.024 25.8188 15.1133 21.9051 17.321L22.8877 19.063C26.4619 17.0467 30.6082 16.024 35.3564 16.024V14.024ZM21.9051 17.321C17.9934 19.5276 14.8892 22.6874 12.5962 26.7747L14.3405 27.7532C16.4636 23.9686 19.3113 21.0804 22.8877 19.063L21.9051 17.321ZM14.2043 26.5869L4.26831 15.7869L2.79644 17.1411L12.7324 27.9411L14.2043 26.5869ZM4.39615 16.9679C5.67122 14.782 7.40892 12.8105 9.62508 11.056L8.38367 9.48795C5.99183 11.3815 4.08153 13.5379 2.6686 15.9601L4.39615 16.9679ZM9.64456 11.0402C11.8785 9.17857 14.3967 7.59192 17.2033 6.28218L16.3575 4.46982C13.4041 5.84808 10.7382 7.52543 8.36419 9.50377L9.64456 11.0402ZM17.2159 6.27616C20.1131 4.8743 23.2004 3.8446 26.4805 3.18858L26.0883 1.22742C22.6484 1.91539 19.3996 2.99769 16.3448 4.47584L17.2159 6.27616ZM26.5013 3.18418C29.8839 2.43249 33.3631 2.05599 36.9404 2.05599V0.055995C33.2216 0.055995 29.5968 0.447506 26.0674 1.23181L26.5013 3.18418ZM36.9404 2.05599C41.5563 2.05599 45.722 2.66832 49.4473 3.87903L50.0655 1.97696C46.1107 0.691674 41.7324 0.055995 36.9404 0.055995V2.05599ZM49.4541 3.88123C53.2928 5.09836 56.5403 6.77416 59.215 8.8955L60.4578 7.3285C57.5645 5.03384 54.092 3.25363 50.0586 1.97477L49.4541 3.88123ZM59.2279 8.9056C61.9882 11.0218 64.0947 13.5888 65.5606 16.6123L67.3602 15.7397C65.7541 12.4272 63.4445 9.61817 60.4448 7.31839L59.2279 8.9056ZM65.5606 16.6123C67.0248 19.6323 67.7644 22.9852 67.7644 26.688H69.7644C69.7644 22.7108 68.9679 19.0557 67.3602 15.7397L65.5606 16.6123ZM67.7644 26.688C67.7644 29.4664 67.3479 32.0951 66.5197 34.5798L68.4171 35.2122C69.3169 32.5129 69.7644 29.6696 69.7644 26.688H67.7644ZM66.5197 34.5798C65.6904 37.0678 64.4948 39.3195 62.9331 41.3405L64.5157 42.5634C66.218 40.3605 67.5184 37.9082 68.4171 35.2122L66.5197 34.5798ZM62.9156 41.3638C61.4519 43.3765 59.6692 45.0682 57.5621 46.4424L58.6546 48.1176C60.9636 46.6118 62.9248 44.7515 64.5331 42.5402L62.9156 41.3638ZM57.5884 46.4258C55.4974 47.6986 53.1221 48.5699 50.4505 49.0305L50.7903 51.0015C53.6866 50.5021 56.3034 49.5494 58.6283 48.1342L57.5884 46.4258Z" fill="black"/>
</svg>
