<svg width="76" height="104" viewBox="0 0 76 104" fill="none" xmlns="http://www.w3.org/2000/svg">
<path d="M45.7354 102.288H44.7354V103.288H45.7354V102.288ZM45.7354 79.392H46.7354V78.392H45.7354V79.392ZM1.52738 79.392H0.527375V80.392H1.52738V79.392ZM1.52738 65.28L0.737155 64.6672L0.527375 64.9377V65.28H1.52738ZM50.7754 1.77599V0.775994H50.2854L49.9852 1.16317L50.7754 1.77599ZM61.5754 1.77599H62.5754V0.775994H61.5754V1.77599ZM61.5754 64.992H60.5754V65.992H61.5754V64.992ZM74.2474 64.992H75.2474V63.992H74.2474V64.992ZM74.2474 79.392V80.392H75.2474V79.392H74.2474ZM61.5754 79.392V78.392H60.5754V79.392H61.5754ZM61.5754 102.288V103.288H62.5754V102.288H61.5754ZM17.6554 64.992L16.8607 64.385L15.6332 65.992H17.6554V64.992ZM47.4634 64.992V65.992H48.4634V64.992H47.4634ZM47.4634 25.968H48.4634V23.0114L46.6687 25.361L47.4634 25.968ZM46.7354 102.288V79.392H44.7354V102.288H46.7354ZM45.7354 78.392H1.52738V80.392H45.7354V78.392ZM2.52738 79.392V65.28H0.527375V79.392H2.52738ZM2.3176 65.8928L51.5656 2.38882L49.9852 1.16317L0.737155 64.6672L2.3176 65.8928ZM50.7754 2.77599H61.5754V0.775994H50.7754V2.77599ZM60.5754 1.77599V64.992H62.5754V1.77599H60.5754ZM61.5754 65.992H74.2474V63.992H61.5754V65.992ZM73.2474 64.992V79.392H75.2474V64.992H73.2474ZM74.2474 78.392H61.5754V80.392H74.2474V78.392ZM60.5754 79.392V102.288H62.5754V79.392H60.5754ZM61.5754 101.288H45.7354V103.288H61.5754V101.288ZM17.6554 65.992H47.4634V63.992H17.6554V65.992ZM48.4634 64.992V25.968H46.4634V64.992H48.4634ZM46.6687 25.361L16.8607 64.385L18.4501 65.599L48.2581 26.575L46.6687 25.361Z" fill="black"/>
</svg>
