<svg width="73" height="107" viewBox="0 0 73 107" fill="none" xmlns="http://www.w3.org/2000/svg">
<path d="M51.6318 40.8L51.2565 41.727L51.2641 41.73L51.6318 40.8ZM62.2878 47.568L61.5923 48.2866L61.598 48.2921L61.6038 48.2975L62.2878 47.568ZM69.3438 57.936L68.4168 58.3112L68.4206 58.3206L68.4246 58.3299L69.3438 57.936ZM69.0558 85.152L68.1454 84.7382L68.1415 84.7468L68.1377 84.7556L69.0558 85.152ZM61.2798 95.952L60.6167 95.2034L60.6054 95.2134L60.5944 95.2238L61.2798 95.952ZM49.6158 103.008L49.2756 102.068L49.2756 102.068L49.6158 103.008ZM15.1998 100.416L15.6975 99.5486L15.6866 99.5425L15.1998 100.416ZM1.80775 87.024L1.11727 86.3006L0.564163 86.8286L0.928718 87.5008L1.80775 87.024ZM11.3118 77.952L12.1438 77.3973L11.483 76.4061L10.6213 77.2286L11.3118 77.952ZM21.6798 87.744L22.1885 86.8831L22.1885 86.8831L21.6798 87.744ZM49.9038 86.016L49.215 85.291L49.215 85.291L49.9038 86.016ZM54.0798 63.696L53.1513 64.0674L53.1604 64.0903L53.1707 64.1127L54.0798 63.696ZM50.0478 57.648L49.3406 58.3551L49.3507 58.3652L49.3611 58.375L50.0478 57.648ZM43.8558 53.616L43.4711 54.5391L43.4777 54.5418L43.4844 54.5445L43.8558 53.616ZM25.9998 54.624L26.436 55.5238L26.4469 55.5185L26.4577 55.513L25.9998 54.624ZM18.2238 61.536V62.536H18.7636L19.0598 62.0847L18.2238 61.536ZM4.25575 61.536L3.28561 61.2935L2.97497 62.536H4.25575V61.536ZM4.83175 58.08L3.85117 57.8839L3.84641 57.9077L3.84281 57.9317L4.83175 58.08ZM6.27175 50.88L7.25233 51.0761L7.25233 51.0761L6.27175 50.88ZM10.3038 30.432L11.2823 30.638L11.2839 30.6302L10.3038 30.432ZM15.9198 1.77599V0.775994H15.0926L14.9375 1.58847L15.9198 1.77599ZM65.8878 1.77599H66.8878V0.775994H65.8878V1.77599ZM65.8878 16.32V17.32H66.8878V16.32H65.8878ZM27.4398 16.32V15.32H26.6082L26.4565 16.1375L27.4398 16.32ZM22.2558 44.256L21.2725 44.0735L20.6214 47.5823L23.001 44.9228L22.2558 44.256ZM28.7358 39.936L28.3811 39.0009L28.3701 39.0052L28.7358 39.936ZM38.3838 39.352C43.0685 39.352 47.3555 40.148 51.2566 41.7269L52.0069 39.8731C47.844 38.188 43.299 37.352 38.3838 37.352V39.352ZM51.2641 41.73C55.2789 43.3172 58.7173 45.5043 61.5923 48.2866L62.9832 46.8494C59.9062 43.8717 56.2406 41.5468 51.9994 39.87L51.2641 41.73ZM61.6038 48.2975C64.5666 51.0751 66.8373 54.409 68.4168 58.3112L70.2707 57.5608C68.5862 53.399 66.1529 49.8209 62.9717 46.8385L61.6038 48.2975ZM68.4246 58.3299C70.0944 62.2261 70.9358 66.5066 70.9358 71.184H72.9358C72.9358 66.2614 72.0491 61.7098 70.2629 57.5421L68.4246 58.3299ZM70.9358 71.184C70.9358 76.1432 70.0008 80.6563 68.1454 84.7382L69.9661 85.5658C71.9507 81.1997 72.9358 76.4008 72.9358 71.184H70.9358ZM68.1377 84.7556C66.3703 88.8484 63.8641 92.3272 60.6167 95.2034L61.9428 96.7006C65.4154 93.6248 68.0932 89.9036 69.9738 85.5484L68.1377 84.7556ZM60.5944 95.2238C57.4366 98.1958 53.6684 100.479 49.2756 102.068L49.9559 103.948C54.5871 102.273 58.5949 99.8522 61.9651 96.6802L60.5944 95.2238ZM49.2756 102.068C44.8811 103.657 40.1491 104.456 35.0718 104.456V106.456C40.3624 106.456 45.3264 105.623 49.9559 103.948L49.2756 102.068ZM35.0718 104.456C27.8373 104.456 21.3878 102.814 15.6974 99.5486L14.7021 101.283C20.7237 104.738 27.5222 106.456 35.0718 106.456V104.456ZM15.6866 99.5425C9.98926 96.3669 5.66456 92.0375 2.68678 86.5472L0.928718 87.5008C4.09494 93.3385 8.69824 97.9371 14.7129 101.289L15.6866 99.5425ZM2.49823 87.7474L12.0022 78.6754L10.6213 77.2286L1.11727 86.3006L2.49823 87.7474ZM10.4797 78.5067C13.2522 82.6654 16.8193 86.0334 21.171 88.6049L22.1885 86.8831C18.0922 84.4626 14.7473 81.3026 12.1438 77.3973L10.4797 78.5067ZM21.171 88.6049C25.5455 91.1899 30.2327 92.488 35.2158 92.488V90.488C30.5988 90.488 26.262 89.2901 22.1885 86.8831L21.171 88.6049ZM35.2158 92.488C41.3897 92.488 46.5431 90.5879 50.5925 86.741L49.215 85.291C45.5844 88.7401 40.9458 90.488 35.2158 90.488V92.488ZM50.5925 86.741C54.6601 82.8767 56.6638 77.7515 56.6638 71.472H54.6638C54.6638 77.2885 52.8274 81.8593 49.215 85.291L50.5925 86.741ZM56.6638 71.472C56.6638 68.4678 56.1124 65.7308 54.9888 63.2793L53.1707 64.1127C54.1591 66.2692 54.6638 68.7162 54.6638 71.472H56.6638ZM55.0082 63.3246C53.9991 60.8019 52.5768 58.6611 50.7344 56.921L49.3611 58.375C50.9747 59.8989 52.2404 61.7901 53.1513 64.0674L55.0082 63.3246ZM50.7549 56.9409C48.9256 55.1117 46.7455 53.6949 44.2271 52.6875L43.4844 54.5445C45.766 55.4571 47.7139 56.7283 49.3406 58.3551L50.7549 56.9409ZM44.2404 52.6929C41.8012 51.6766 39.1245 51.176 36.2238 51.176V53.176C38.891 53.176 41.3023 53.6354 43.4711 54.5391L44.2404 52.6929ZM36.2238 51.176C32.4203 51.176 28.8549 52.0283 25.5418 53.735L26.4577 55.513C29.4806 53.9557 32.7312 53.176 36.2238 53.176V51.176ZM25.5635 53.7242C22.2257 55.3425 19.4983 57.7712 17.3877 60.9873L19.0598 62.0847C20.9812 59.1568 23.4378 56.9775 26.436 55.5238L25.5635 53.7242ZM18.2238 60.536H4.25575V62.536H18.2238V60.536ZM5.22589 61.7785C5.33655 61.3359 5.53631 60.1242 5.82069 58.2283L3.84281 57.9317C3.55119 59.8758 3.36695 60.9681 3.28561 61.2935L5.22589 61.7785ZM5.81233 58.2761C6.19633 56.3561 6.67633 53.9561 7.25233 51.0761L5.29117 50.6839C4.71517 53.5639 4.23517 55.9639 3.85117 57.8839L5.81233 58.2761ZM7.25233 51.0761C7.82915 48.192 8.45382 44.9726 9.12632 41.4179L7.16118 41.0461C6.48969 44.5954 5.86636 47.808 5.29117 50.6839L7.25233 51.0761ZM9.12632 41.4179C9.79701 37.8728 10.5157 34.2795 11.2823 30.638L9.3252 30.226C8.55584 33.8805 7.83449 37.4872 7.16118 41.0461L9.12632 41.4179ZM11.2839 30.6302C13.0128 22.082 14.8855 12.5263 16.902 1.96352L14.9375 1.58847C12.922 12.1457 11.0507 21.694 9.3236 30.2338L11.2839 30.6302ZM15.9198 2.77599H65.8878V0.775994H15.9198V2.77599ZM64.8878 1.77599V16.32H66.8878V1.77599H64.8878ZM65.8878 15.32H27.4398V17.32H65.8878V15.32ZM26.4565 16.1375L21.2725 44.0735L23.239 44.4384L28.423 16.5024L26.4565 16.1375ZM23.001 44.9228C24.5116 43.2344 26.5328 41.8759 29.1014 40.8667L28.3701 39.0052C25.5627 40.1081 23.2639 41.6296 21.5105 43.5892L23.001 44.9228ZM29.0904 40.871C31.7388 39.8664 34.8305 39.352 38.3838 39.352V37.352C34.641 37.352 31.3007 37.8936 28.3811 39.001L29.0904 40.871Z" fill="black"/>
</svg>
