<svg width="77" height="107" viewBox="0 0 77 107" fill="none" xmlns="http://www.w3.org/2000/svg">
<path d="M72.6016 83.84L71.6878 83.4339L71.684 83.4424L71.6804 83.451L72.6016 83.84ZM64.8256 95.216L65.5221 95.9336L65.5224 95.9333L64.8256 95.216ZM53.1616 102.704L52.7868 101.777L52.7868 101.777L53.1616 102.704ZM23.2096 102.416L22.793 103.325L22.8009 103.329L22.8088 103.332L23.2096 102.416ZM11.4016 93.488L10.6318 94.1264L10.6397 94.1356L11.4016 93.488ZM3.76962 79.232L2.81315 79.5238L2.81613 79.5336L2.81932 79.5433L3.76962 79.232ZM3.91363 34.448L2.9457 34.1966L2.94348 34.2055L3.91363 34.448ZM11.8336 16.016L12.6582 16.5819L12.6632 16.5744L11.8336 16.016ZM24.0736 4.784L24.535 5.67122L24.535 5.67122L24.0736 4.784ZM58.0576 5.504L57.5733 6.37892L57.5799 6.38248L58.0576 5.504ZM71.3056 18.176L72.0285 18.867L72.5612 18.3097L72.1578 17.6527L71.3056 18.176ZM61.9456 27.968L61.0685 28.4483L61.7246 29.6464L62.6685 28.659L61.9456 27.968ZM52.7296 18.464L52.1996 19.312L52.2119 19.3197L52.2244 19.327L52.7296 18.464ZM22.6336 24.08L21.8156 23.5048L21.8138 23.5074L22.6336 24.08ZM16.0096 49.712L15.0098 49.6946L16.908 50.1512L16.0096 49.712ZM25.5136 39.488L26.0224 40.3489L26.0224 40.3489L25.5136 39.488ZM54.0256 38.48L53.6367 39.4012L53.6454 39.4049L53.6542 39.4085L54.0256 38.48ZM65.2576 45.68L65.9538 44.9621L65.9538 44.9621L65.2576 45.68ZM72.7456 56.624L71.8275 57.0204L71.8309 57.0282L72.7456 56.624ZM46.9696 90.176L46.5757 89.2568L46.5635 89.2622L46.9696 90.176ZM53.8816 85.424L53.1745 84.7169L53.1659 84.7255L53.1575 84.7343L53.8816 85.424ZM58.6336 78.512L59.5475 78.9182L59.5528 78.9059L58.6336 78.512ZM58.6336 61.664L57.7198 62.0701L57.7198 62.0701L58.6336 61.664ZM53.8816 54.896L53.1575 55.5857L53.1743 55.6033L53.192 55.6201L53.8816 54.896ZM46.9696 50.144L46.5635 51.0579L46.5757 51.0631L46.9696 50.144ZM30.1216 50.144L29.7277 49.2248L29.7155 49.2302L30.1216 50.144ZM23.2096 54.896L22.5025 54.1889L22.5025 54.1889L23.2096 54.896ZM18.6016 61.664L19.5154 62.0701L19.5154 62.0701L18.6016 61.664ZM18.6016 78.512L17.6824 78.906L17.6878 78.9181L18.6016 78.512ZM23.2096 85.424L22.4855 86.1137L22.4939 86.1225L22.5025 86.1311L23.2096 85.424ZM30.1216 90.176L29.7155 91.0899L29.7277 91.0951L30.1216 90.176ZM74.4816 70.016C74.4816 74.7772 73.549 79.2463 71.6878 83.4339L73.5154 84.2461C75.4943 79.7937 76.4816 75.0468 76.4816 70.016H74.4816ZM71.6804 83.451C69.9084 87.6478 67.3927 91.3281 64.1288 94.4987L65.5224 95.9333C68.9786 92.5759 71.6469 88.6722 73.5229 84.229L71.6804 83.451ZM64.1292 94.4984C60.9642 97.5703 57.1875 99.9979 52.7868 101.777L53.5364 103.631C58.1597 101.762 62.1591 99.1977 65.5221 95.9336L64.1292 94.4984ZM52.7868 101.777C48.4015 103.55 43.6816 104.44 38.6176 104.44V106.44C43.9216 106.44 48.8977 105.506 53.5364 103.631L52.7868 101.777ZM38.6176 104.44C33.0742 104.44 28.077 103.454 23.6104 101.5L22.8088 103.332C27.5582 105.41 32.8331 106.44 38.6176 106.44V104.44ZM23.6263 101.507C19.1503 99.4554 15.3324 96.5684 12.1636 92.8404L10.6397 94.1356C13.9989 98.0876 18.053 101.153 22.793 103.325L23.6263 101.507ZM12.1714 92.8497C8.99839 89.0234 6.51047 84.3865 4.71993 78.9207L2.81932 79.5433C4.67678 85.2135 7.27686 90.0806 10.6319 94.1263L12.1714 92.8497ZM4.7261 78.9402C3.03204 73.3874 2.17763 67.1042 2.17763 60.08H0.177625C0.177625 67.2638 1.05121 73.7486 2.81315 79.5238L4.7261 78.9402ZM2.17763 60.08C2.17763 50.3466 3.08451 41.8875 4.88377 34.6905L2.94348 34.2055C1.09474 41.6005 0.177625 50.2294 0.177625 60.08H2.17763ZM4.88151 34.6994C6.78027 27.3892 9.37958 21.3592 12.6581 16.5818L11.0091 15.4502C7.56767 20.4648 4.88698 26.7228 2.94574 34.1966L4.88151 34.6994ZM12.6632 16.5744C15.9406 11.7052 19.8994 8.08173 24.535 5.67122L23.6123 3.89678C18.6479 6.47826 14.4467 10.3428 11.004 15.4576L12.6632 16.5744ZM24.535 5.67122C29.1786 3.25652 34.3939 2.04 40.2016 2.04V0.0399952C34.1054 0.0399952 28.5686 1.31948 23.6123 3.89678L24.535 5.67122ZM40.2016 2.04C46.5711 2.04 52.3548 3.49008 57.5733 6.37889L58.5419 4.6291C53.0084 1.56591 46.8881 0.0399952 40.2016 0.0399952V2.04ZM57.5799 6.38248C62.8932 9.27221 67.1821 13.3716 70.4535 18.6993L72.1578 17.6527C68.7092 12.0364 64.166 7.68778 58.5354 4.62551L57.5799 6.38248ZM70.5828 17.485L61.2228 27.277L62.6685 28.659L72.0285 18.867L70.5828 17.485ZM62.8227 27.4877C60.5284 23.2981 57.3285 19.9973 53.2348 17.601L52.2244 19.327C56.0028 21.5387 58.9468 24.5739 61.0685 28.4483L62.8227 27.4877ZM53.2596 17.616C49.2543 15.1127 44.7974 13.864 39.9136 13.864V15.864C44.4379 15.864 48.5249 17.0153 52.1996 19.312L53.2596 17.616ZM39.9136 13.864C32.3717 13.864 26.3133 17.1081 21.8156 23.5048L23.4517 24.6552C27.594 18.7639 33.0555 15.864 39.9136 15.864V13.864ZM21.8138 23.5074C17.4323 29.7808 15.2036 38.5486 15.0098 49.6946L17.0095 49.7294C17.1996 38.7954 19.3869 30.4752 23.4535 24.6526L21.8138 23.5074ZM16.908 50.1512C18.9323 46.0106 21.963 42.7476 26.0224 40.3489L25.0049 38.6271C20.6162 41.2204 17.3109 44.7734 15.1112 49.2728L16.908 50.1512ZM26.0224 40.3489C30.075 37.9542 34.7434 36.744 40.0576 36.744V34.744C34.4278 34.744 29.4002 36.0298 25.0049 38.6271L26.0224 40.3489ZM40.0576 36.744C44.9248 36.744 49.4476 37.6325 53.6367 39.4012L54.4146 37.5587C49.9637 35.6795 45.1745 34.744 40.0576 34.744V36.744ZM53.6542 39.4085C57.86 41.0908 61.492 43.4214 64.5615 46.3979L65.9538 44.9621C62.6872 41.7946 58.8313 39.3252 54.397 37.5515L53.6542 39.4085ZM64.5615 46.3979C67.6311 49.3745 70.0534 52.9119 71.8276 57.0204L73.6637 56.2276C71.7898 51.8881 69.2202 48.1295 65.9538 44.9621L64.5615 46.3979ZM71.8309 57.0282C73.5952 61.0209 74.4816 65.3462 74.4816 70.016H76.4816C76.4816 65.0858 75.5441 60.4831 73.6603 56.2198L71.8309 57.0282ZM38.6176 92.904C41.7265 92.904 44.6496 92.3014 47.3758 91.0898L46.5635 89.2622C44.1056 90.3546 41.4607 90.904 38.6176 90.904V92.904ZM47.3635 91.0951C50.1696 89.8925 52.5877 88.2326 54.6058 86.1137L53.1575 84.7343C51.3356 86.6474 49.1456 88.1555 46.5757 89.2569L47.3635 91.0951ZM54.5887 86.1311C56.6911 84.0288 58.3453 81.6229 59.5474 78.9181L57.7198 78.1059C56.6179 80.5851 55.1042 82.7872 53.1745 84.7169L54.5887 86.1311ZM59.5528 78.9059C60.7591 76.0912 61.3616 73.125 61.3616 70.016H59.3616C59.3616 72.859 58.8122 75.5568 57.7145 78.1181L59.5528 78.9059ZM61.3616 70.016C61.3616 66.9071 60.7591 63.984 59.5474 61.2579L57.7198 62.0701C58.8122 64.528 59.3616 67.1729 59.3616 70.016H61.3616ZM59.5474 61.2579C58.3433 58.5485 56.6839 56.1839 54.5713 54.1719L53.192 55.6201C55.1113 57.4481 56.62 59.5955 57.7198 62.0701L59.5474 61.2579ZM54.6058 54.2063C52.5877 52.0874 50.1696 50.4275 47.3635 49.2249L46.5757 51.0631C49.1456 52.1645 51.3356 53.6726 53.1575 55.5857L54.6058 54.2063ZM47.3758 49.2302C44.6496 48.0186 41.7265 47.416 38.6176 47.416V49.416C41.4607 49.416 44.1056 49.9654 46.5635 51.0578L47.3758 49.2302ZM38.6176 47.416C35.5087 47.416 32.5424 48.0185 29.7277 49.2249L30.5155 51.0631C33.0768 49.9654 35.7746 49.416 38.6176 49.416V47.416ZM29.7155 49.2302C27.0107 50.4323 24.6049 52.0866 22.5025 54.1889L23.9167 55.6031C25.8464 53.6734 28.0485 52.1597 30.5278 51.0578L29.7155 49.2302ZM22.5025 54.1889C20.4919 56.1995 18.8874 58.5588 17.6878 61.2579L19.5154 62.0701C20.6198 59.5852 22.0874 57.4325 23.9167 55.6031L22.5025 54.1889ZM17.6878 61.2579C16.4762 63.984 15.8736 66.9071 15.8736 70.016H17.8736C17.8736 67.1729 18.4231 64.528 19.5154 62.0701L17.6878 61.2579ZM15.8736 70.016C15.8736 73.125 16.4762 76.0912 17.6825 78.9059L19.5208 78.1181C18.4231 75.5568 17.8736 72.859 17.8736 70.016H15.8736ZM17.6878 78.9181C18.8854 81.6128 20.485 84.0131 22.4855 86.1137L23.9338 84.7343C22.0943 82.8029 20.6218 80.5952 19.5154 78.1059L17.6878 78.9181ZM22.5025 86.1311C24.6049 88.2334 27.0107 89.8877 29.7155 91.0898L30.5278 89.2622C28.0485 88.1603 25.8464 86.6466 23.9167 84.7169L22.5025 86.1311ZM29.7277 91.0951C32.5424 92.3014 35.5087 92.904 38.6176 92.904V90.904C35.7746 90.904 33.0768 90.3545 30.5155 89.2569L29.7277 91.0951Z" fill="black"/>
</svg>
