<svg width="78" height="105" viewBox="0 0 78 105" fill="none" xmlns="http://www.w3.org/2000/svg">
<path d="M51.1227 15.592L52.0162 16.041L52.7443 14.592H51.1227V15.592ZM1.58669 15.592H0.586688V16.592H1.58669V15.592ZM1.58669 1.048V0.0479994H0.586688V1.048H1.58669ZM76.1787 1.048L77.0731 1.49521L77.7967 0.0479994H76.1787V1.048ZM25.0587 103.288V104.288H25.6767L25.9531 103.735L25.0587 103.288ZM7.05869 103.288L6.16514 102.839L5.43709 104.288H7.05869V103.288ZM51.1227 14.592H1.58669V16.592H51.1227V14.592ZM2.58669 15.592V1.048H0.586688V15.592H2.58669ZM1.58669 2.048H76.1787V0.0479994H1.58669V2.048ZM75.2843 0.600786L24.1643 102.841L25.9531 103.735L77.0731 1.49521L75.2843 0.600786ZM25.0587 102.288H7.05869V104.288H25.0587V102.288ZM7.95223 103.737L52.0162 16.041L50.2291 15.143L6.16514 102.839L7.95223 103.737Z" fill="black"/>
</svg>
