<svg width="76" height="107" viewBox="0 0 76 107" fill="none" xmlns="http://www.w3.org/2000/svg">
<path d="M71.5098 87.152L70.6244 86.6871L70.62 86.6957L71.5098 87.152ZM63.5898 96.8L64.2145 97.5809L64.2145 97.5809L63.5898 96.8ZM51.9258 102.992L52.2358 103.943L52.2358 103.943L51.9258 102.992ZM23.4138 102.848L23.0672 103.786L23.0793 103.79L23.0916 103.795L23.4138 102.848ZM11.8938 96.224L11.2449 96.9848L11.2449 96.9848L11.8938 96.224ZM4.11781 86.288L3.21454 86.7171L3.21887 86.7262L3.22339 86.7352L4.11781 86.288ZM2.96581 65.408L3.89191 65.7853L3.89191 65.7853L2.96581 65.408ZM6.99781 58.496L6.22384 57.8628L6.22057 57.8668L6.99781 58.496ZM12.7578 53.024L13.346 53.8327L13.346 53.8327L12.7578 53.024ZM19.0938 49.28L19.5076 50.1904L21.5453 49.2641L19.4958 48.3644L19.0938 49.28ZM9.01381 41.36L9.80087 40.7431L9.80087 40.7431L9.01381 41.36ZM7.86181 17.6L8.71937 18.1145L8.72559 18.1039L7.86181 17.6ZM15.6378 8.96L16.226 9.76873L16.2339 9.76299L16.2417 9.75709L15.6378 8.96ZM26.2938 3.632L26.5747 4.59173L26.5854 4.5886L26.5961 4.58523L26.2938 3.632ZM49.6218 3.632L49.3196 4.58523L49.3333 4.58957L49.3471 4.59352L49.6218 3.632ZM60.4218 8.816L59.8336 9.62481L59.8451 9.63297L60.4218 8.816ZM68.3418 17.456L67.478 17.9599L67.4843 17.9705L68.3418 17.456ZM67.0458 41.36L66.2609 40.7403L66.2588 40.7431L67.0458 41.36ZM56.8218 49.28L56.4279 48.3609L54.3548 49.2493L56.4052 50.1891L56.8218 49.28ZM63.4458 53.312L62.8344 54.1033L62.8542 54.1186L62.8748 54.1329L63.4458 53.312ZM69.2058 58.928L68.4016 59.5224L68.408 59.531L68.4145 59.5394L69.2058 58.928ZM73.0938 65.984L72.1561 66.3313L72.1561 66.3313L73.0938 65.984ZM56.6778 66.128L55.7912 66.5906L55.8034 66.614L55.8169 66.6367L56.6778 66.128ZM51.9258 60.512L51.3011 61.2929L51.3104 61.3003L51.3198 61.3074L51.9258 60.512ZM45.3018 57.056L44.997 58.0085L45.0077 58.0118L45.3018 57.056ZM30.3258 57.2L30.6306 58.1524L30.6418 58.1488L30.6529 58.145L30.3258 57.2ZM23.8458 60.656L23.2211 59.8751L23.2113 59.883L23.2017 59.8911L23.8458 60.656ZM19.3818 66.272L20.2597 66.7508L20.2641 66.7427L20.2684 66.7346L19.3818 66.272ZM19.3818 80.816L18.4952 81.2786L18.5074 81.302L18.5209 81.3247L19.3818 80.816ZM24.1338 86.288L23.5091 87.0689L23.5213 87.0786L23.5338 87.088L24.1338 86.288ZM30.6138 89.744L30.2751 90.6849L30.2972 90.6929L30.3197 90.6998L30.6138 89.744ZM45.5898 89.6L45.2627 88.6549L45.2511 88.6591L45.5898 89.6ZM52.2138 86L52.8385 86.7809L52.8385 86.7809L52.2138 86ZM22.4058 35.888L21.5525 36.4094L21.5525 36.4094L22.4058 35.888ZM31.9098 42.944L31.5936 43.8927L31.6142 43.8996L31.6351 43.9055L31.9098 42.944ZM44.0058 42.944L44.2805 43.9055L44.2948 43.9014L44.309 43.8969L44.0058 42.944ZM49.6218 40.208L50.1985 41.025L50.2141 41.014L50.2293 41.0024L49.6218 40.208ZM53.6538 35.744L54.5071 36.2654L54.5133 36.2553L54.5192 36.245L53.6538 35.744ZM53.7978 23.936L52.9237 24.4216L52.9296 24.4324L52.9359 24.443L53.7978 23.936ZM49.9098 19.616L49.2792 20.3921L49.3055 20.4134L49.3331 20.433L49.9098 19.616ZM44.4378 16.88L44.1216 17.8287L44.1479 17.8375L44.1747 17.8448L44.4378 16.88ZM31.3338 16.88L31.0306 15.927L31.0176 15.9313L31.3338 16.88ZM25.8618 19.76L26.4618 20.56L26.4693 20.5544L25.8618 19.76ZM22.1178 24.08L21.2437 23.5944L21.2331 23.6134L21.2234 23.6328L22.1178 24.08ZM73.5338 74.48C73.5338 78.9365 72.5604 82.9995 70.6244 86.6872L72.3952 87.6168C74.4912 83.6245 75.5338 79.2395 75.5338 74.48H73.5338ZM70.62 86.6957C68.7659 90.3111 66.2174 93.4173 62.9651 96.0191L64.2145 97.5809C67.6822 94.8067 70.4137 91.4809 72.3996 87.6083L70.62 86.6957ZM62.9651 96.0191C59.7062 98.6263 55.9267 100.636 51.6158 102.041L52.2358 103.943C56.757 102.468 60.7535 100.35 64.2145 97.5809L62.9651 96.0191ZM51.6158 102.041C47.3071 103.446 42.7084 104.152 37.8138 104.152V106.152C42.9032 106.152 47.7125 105.418 52.2358 103.943L51.6158 102.041ZM37.8138 104.152C32.828 104.152 28.1375 103.4 23.7361 101.901L23.0916 103.795C27.7141 105.368 32.6236 106.152 37.8138 106.152V104.152ZM23.7605 101.91C19.4441 100.315 15.7089 98.1637 12.5428 95.4632L11.2449 96.9848C14.6067 99.8523 18.5515 102.117 23.0672 103.786L23.7605 101.91ZM12.5428 95.4632C9.38087 92.7663 6.87232 89.5609 5.01224 85.8408L3.22339 86.7352C5.20331 90.6951 7.87876 94.1137 11.2449 96.9848L12.5428 95.4632ZM5.02109 85.8589C3.26465 82.1612 2.38181 78.1329 2.38181 73.76H0.381813C0.381813 78.4111 1.32298 82.7348 3.21454 86.7171L5.02109 85.8589ZM2.38181 73.76C2.38181 70.9051 2.88775 68.25 3.89191 65.7853L2.03972 65.0307C0.93188 67.7499 0.381813 70.6629 0.381813 73.76H2.38181ZM3.89191 65.7853C4.91382 63.277 6.20943 61.0592 7.77506 59.1252L6.22057 57.8668C4.52219 59.9648 3.1298 62.355 2.03972 65.0307L3.89191 65.7853ZM7.77177 59.1292C9.44804 57.0805 11.3062 55.3162 13.346 53.8327L12.1696 52.2153C9.98542 53.8038 8.00359 55.6875 6.22386 57.8628L7.77177 59.1292ZM13.346 53.8327C15.4101 52.3315 17.4641 51.1192 19.5076 50.1904L18.68 48.3696C16.4995 49.3608 14.3295 50.6445 12.1696 52.2153L13.346 53.8327ZM19.4958 48.3644C15.7184 46.706 12.4884 44.172 9.80087 40.7431L8.22676 41.9769C11.1073 45.652 14.5972 48.398 18.6918 50.1956L19.4958 48.3644ZM9.80087 40.7431C7.1548 37.3671 5.83781 33.5523 5.83781 29.264H3.83781C3.83781 33.9997 5.30482 38.2489 8.22676 41.9769L9.80087 40.7431ZM5.83781 29.264C5.83781 25.0057 6.80797 21.3 8.71931 18.1145L7.00432 17.0855C4.88365 20.6199 3.83781 24.6903 3.83781 29.264H5.83781ZM8.72559 18.1039C10.6734 14.7648 13.1724 11.9895 16.226 9.76873L15.0496 8.15126C11.7672 10.5385 9.08227 13.5231 6.99803 17.0961L8.72559 18.1039ZM16.2417 9.75709C19.3097 7.43282 22.7516 5.7107 26.5747 4.59173L26.0129 2.67226C21.9641 3.85729 18.3019 5.68717 15.034 8.1629L16.2417 9.75709ZM26.5961 4.58523C30.4417 3.36589 34.2278 2.75999 37.9578 2.75999V0.759995C34.0078 0.759995 30.018 1.4021 25.9916 2.67877L26.5961 4.58523ZM37.9578 2.75999C41.6878 2.75999 45.474 3.36589 49.3196 4.58523L49.9241 2.67877C45.8977 1.4021 41.9078 0.759995 37.9578 0.759995V2.75999ZM49.3471 4.59352C53.2744 5.71562 56.7669 7.39434 59.8336 9.62473L61.01 8.00726C57.7408 5.62964 54.0332 3.85237 49.8965 2.67047L49.3471 4.59352ZM59.8451 9.63297C62.9919 11.8542 65.5341 14.6274 67.478 17.9599L69.2056 16.9521C67.1175 13.3726 64.3797 10.3858 60.9985 7.99903L59.8451 9.63297ZM67.4843 17.9705C69.3957 21.156 70.3658 24.8617 70.3658 29.12H72.3658C72.3658 24.5463 71.32 20.4759 69.1993 16.9415L67.4843 17.9705ZM70.3658 29.12C70.3658 33.3999 69.0061 37.2631 66.2609 40.7404L67.8307 41.9796C70.8455 38.1609 72.3658 33.8641 72.3658 29.12H70.3658ZM66.2588 40.7431C63.5752 44.1669 60.301 46.701 56.4279 48.3609L57.2157 50.1991C61.4066 48.403 64.9484 45.6571 67.8329 41.9769L66.2588 40.7431ZM56.4052 50.1891C58.6364 51.2117 60.7794 52.5154 62.8344 54.1033L64.0573 52.5207C61.8882 50.8446 59.6152 49.4603 57.2385 48.3709L56.4052 50.1891ZM62.8748 54.1329C64.9913 55.6053 66.8331 57.4002 68.4016 59.5224L70.01 58.3336C68.3145 56.0397 66.3163 54.0907 64.0169 52.4911L62.8748 54.1329ZM68.4145 59.5394C69.9824 61.5685 71.23 63.8309 72.1561 66.3313L74.0316 65.6367C73.0377 62.9531 71.6932 60.5115 69.9971 58.3165L68.4145 59.5394ZM72.1561 66.3313C73.0706 68.8005 73.5338 71.5134 73.5338 74.48H75.5338C75.5338 71.3026 75.0371 68.3515 74.0316 65.6367L72.1561 66.3313ZM59.5498 73.472C59.5498 70.5337 58.8895 67.9052 57.5387 65.6193L55.8169 66.6367C56.9621 68.5748 57.5498 70.8423 57.5498 73.472H59.5498ZM57.5644 65.6654C56.3432 63.3249 54.6625 61.3399 52.5319 59.7166L51.3198 61.3074C53.2211 62.756 54.7084 64.5151 55.7912 66.5906L57.5644 65.6654ZM52.5505 59.7311C50.5263 58.1118 48.2046 56.9029 45.5959 56.1002L45.0077 58.0118C47.3911 58.7451 49.4853 59.8402 51.3011 61.2929L52.5505 59.7311ZM45.6066 56.1036C43.109 55.3044 40.5583 54.904 37.9578 54.904V56.904C40.3494 56.904 42.6946 57.2716 44.997 58.0084L45.6066 56.1036ZM37.9578 54.904C35.2523 54.904 32.5979 55.3553 29.9987 56.255L30.6529 58.145C33.0457 57.3167 35.4793 56.904 37.9578 56.904V54.904ZM30.021 56.2476C27.5078 57.0518 25.2388 58.261 23.2211 59.8751L24.4705 61.4369C26.2928 59.979 28.3439 58.8842 30.6306 58.1524L30.021 56.2476ZM23.2017 59.8911C21.2735 61.5148 19.7048 63.491 18.4952 65.8094L20.2684 66.7346C21.3628 64.637 22.7701 62.8692 24.4899 61.4209L23.2017 59.8911ZM18.5039 65.7931C17.2627 68.0686 16.6538 70.6367 16.6538 73.472H18.6538C18.6538 70.9313 19.1969 68.6994 20.2597 66.7508L18.5039 65.7931ZM16.6538 73.472C16.6538 76.308 17.2629 78.9166 18.4952 81.2786L20.2684 80.3534C19.1967 78.2994 18.6538 76.012 18.6538 73.472H16.6538ZM18.5209 81.3247C19.8306 83.5412 21.4948 85.4574 23.5091 87.0689L24.7585 85.5071C22.9329 84.0466 21.429 82.3148 20.2427 80.3073L18.5209 81.3247ZM23.5338 87.088C25.5383 88.5913 27.7874 89.7893 30.2751 90.6849L30.9525 88.8031C28.6403 87.9707 26.5694 86.8647 24.7338 85.488L23.5338 87.088ZM30.3197 90.6998C32.9066 91.4957 35.5016 91.896 38.1018 91.896V89.896C35.71 89.896 33.3131 89.5283 30.9079 88.7882L30.3197 90.6998ZM38.1018 91.896C40.8074 91.896 43.4181 91.4446 45.9285 90.5409L45.2511 88.6591C42.9615 89.4834 40.5802 89.896 38.1018 89.896V91.896ZM45.9169 90.545C48.5127 89.6464 50.823 88.3933 52.8385 86.7809L51.5891 85.2191C49.7646 86.6787 47.6589 87.8256 45.2627 88.655L45.9169 90.545ZM52.8385 86.7809C54.8598 85.1639 56.4828 83.2379 57.6997 81.0069L55.9439 80.0491C54.8569 82.0421 53.4079 83.7641 51.5891 85.2191L52.8385 86.7809ZM57.6997 81.0069C58.938 78.7367 59.5498 76.218 59.5498 73.472H57.5498C57.5498 75.91 57.0097 78.0953 55.9439 80.0491L57.6997 81.0069ZM19.8218 29.84C19.8218 32.3021 20.3879 34.5037 21.5525 36.4094L23.2591 35.3665C22.3117 33.8163 21.8218 31.9859 21.8218 29.84H19.8218ZM21.5525 36.4094C22.6786 38.2521 24.1162 39.7932 25.8611 41.025L27.0145 39.391C25.4954 38.3188 24.245 36.9799 23.2591 35.3665L21.5525 36.4094ZM25.8611 41.025C27.578 42.2369 29.4907 43.1917 31.5936 43.8927L32.226 41.9953C30.2969 41.3523 28.5616 40.4831 27.0145 39.391L25.8611 41.025ZM31.6351 43.9055C33.7368 44.506 35.8452 44.808 37.9578 44.808V42.808C36.0384 42.808 34.1148 42.534 32.1845 41.9825L31.6351 43.9055ZM37.9578 44.808C40.0704 44.808 42.1788 44.506 44.2805 43.9055L43.7311 41.9825C41.8008 42.534 39.8772 42.808 37.9578 42.808V44.808ZM44.309 43.8969C46.508 43.1972 48.4742 42.2421 50.1985 41.025L49.0451 39.391C47.5054 40.4779 45.7276 41.3468 43.7026 41.9911L44.309 43.8969ZM50.2293 41.0024C51.9579 39.6805 53.3858 38.1004 54.5071 36.2654L52.8005 35.2225C51.8099 36.8436 50.5497 38.2395 49.0144 39.4136L50.2293 41.0024ZM54.5192 36.245C55.6715 34.2548 56.2378 32.0151 56.2378 29.552H54.2378C54.2378 31.6969 53.7481 33.5852 52.7884 35.243L54.5192 36.245ZM56.2378 29.552C56.2378 27.2828 55.7203 25.2319 54.6598 23.429L52.9359 24.443C53.7954 25.9041 54.2378 27.5972 54.2378 29.552H56.2378ZM54.672 23.4503C53.6382 21.5895 52.24 20.0368 50.4865 18.799L49.3331 20.433C50.8437 21.4992 52.0374 22.8265 52.9237 24.4216L54.672 23.4503ZM50.5404 18.8399C48.8854 17.4952 46.9329 16.5239 44.7009 15.9152L44.1747 17.8448C46.1667 18.388 47.8622 19.2408 49.2792 20.3921L50.5404 18.8399ZM44.754 15.9313C42.6278 15.2226 40.3603 14.872 37.9578 14.872V16.872C40.1634 16.872 42.2158 17.1934 44.1216 17.8287L44.754 15.9313ZM37.9578 14.872C35.555 14.872 33.2445 15.2227 31.0306 15.9271L31.637 17.8329C33.6471 17.1933 35.7526 16.872 37.9578 16.872V14.872ZM31.0176 15.9313C28.9003 16.6371 26.9772 17.6481 25.2544 18.9656L26.4693 20.5544C28.0104 19.3758 29.7353 18.4669 31.65 17.8287L31.0176 15.9313ZM25.2618 18.96C23.61 20.1989 22.2699 21.7472 21.2437 23.5944L22.992 24.5656C23.8858 22.9568 25.0416 21.6251 26.4618 20.56L25.2618 18.96ZM21.2234 23.6328C20.2837 25.5122 19.8218 27.5875 19.8218 29.84H21.8218C21.8218 27.8685 22.224 26.1038 23.0122 24.5272L21.2234 23.6328Z" fill="black"/>
</svg>
