<svg width="77" height="108" viewBox="0 0 77 108" fill="none" xmlns="http://www.w3.org/2000/svg">
<path d="M4.37756 23.376L3.46375 22.9699L3.46375 22.9699L4.37756 23.376ZM12.1536 12.144L12.85 12.8616L12.8503 12.8613L12.1536 12.144ZM53.7696 4.944L53.3529 5.85306L53.3608 5.85668L53.3687 5.86015L53.7696 4.944ZM65.5776 13.872L64.8078 14.5104L64.8156 14.5196L65.5776 13.872ZM73.0656 28.128L72.1091 28.4198L72.1121 28.4296L72.1153 28.4393L73.0656 28.128ZM72.9216 72.912L71.9536 72.6606L71.9514 72.6695L72.9216 72.912ZM65.1456 91.2L64.321 90.6341L64.316 90.6416L65.1456 91.2ZM52.7616 102.432L52.3074 101.541L52.3002 101.545L52.7616 102.432ZM18.7776 101.712L18.2932 102.587L18.2998 102.59L18.7776 101.712ZM5.67356 89.04L4.95069 88.349L4.41799 88.9063L4.82139 89.5633L5.67356 89.04ZM15.0336 79.248L15.9107 78.7677L15.2546 77.5696L14.3107 78.557L15.0336 79.248ZM24.1056 88.752L24.6262 87.8982L24.6201 87.8945L24.1056 88.752ZM54.2016 83.28L53.3835 82.7048L53.3817 82.7074L54.2016 83.28ZM60.9696 57.504L61.9694 57.5214L60.0634 57.0811L60.9696 57.504ZM51.4656 67.728L50.9653 66.8621L50.9568 66.8671L51.4656 67.728ZM22.9536 68.88L22.5646 69.8012L22.5733 69.8049L22.5822 69.8085L22.9536 68.88ZM11.7216 61.536L11.0254 62.2539L11.0254 62.2539L11.7216 61.536ZM4.23356 50.736L3.31547 51.1324L3.31888 51.1402L4.23356 50.736ZM29.8656 17.04L29.4716 16.1208L29.4594 16.1262L29.8656 17.04ZM22.9536 21.792L22.2465 21.0849L22.2378 21.0935L22.2294 21.1023L22.9536 21.792ZM18.3456 28.848L19.2595 29.2542L19.2647 29.2419L18.3456 28.848ZM18.3456 45.552L19.2594 45.1459L19.2594 45.1459L18.3456 45.552ZM22.9536 52.464L22.2294 53.1537L22.2462 53.1713L22.2639 53.1881L22.9536 52.464ZM29.8656 57.072L29.4594 57.9859L29.4716 57.9911L29.8656 57.072ZM46.7136 57.072L46.3196 56.1528L46.3074 56.1582L46.7136 57.072ZM53.6256 52.464L54.3327 53.1711L54.3327 53.1711L53.6256 52.464ZM58.3776 45.552L57.4638 45.1459L57.4638 45.1459L58.3776 45.552ZM58.3776 28.848L57.4583 29.242L57.4638 29.2541L58.3776 28.848ZM53.6256 21.792L52.9014 22.4817L52.9098 22.4905L52.9185 22.4991L53.6256 21.792ZM46.7136 17.04L46.3074 17.9539L46.3196 17.9591L46.7136 17.04ZM2.49756 37.2C2.49756 32.4388 3.43024 27.9697 5.29137 23.7821L3.46375 22.9699C1.48489 27.4223 0.497563 32.1692 0.497563 37.2H2.49756ZM5.29137 23.7821C7.16156 19.5742 9.68131 15.9371 12.85 12.8616L11.4571 11.4264C8.09781 14.6869 5.43356 18.5378 3.46375 22.9699L5.29137 23.7821ZM12.8503 12.8613C16.114 9.69088 19.9395 7.21656 24.3364 5.4391L23.5868 3.58488C18.9596 5.45543 14.9131 8.0691 11.4568 11.4267L12.8503 12.8613ZM24.3364 5.4391C28.7217 3.66632 33.4415 2.77599 38.5056 2.77599V0.775994C33.2016 0.775994 28.2255 1.70967 23.5868 3.58488L24.3364 5.4391ZM38.5056 2.77599C43.9441 2.77599 48.888 3.80666 53.3529 5.85306L54.1862 4.03493C49.4351 1.85733 44.2031 0.775994 38.5056 0.775994V2.77599ZM53.3687 5.86015C57.8313 7.81254 61.6417 10.6924 64.8078 14.5103L66.3473 13.2337C62.9854 9.17961 58.9238 6.10746 54.1704 4.02784L53.3687 5.86015ZM64.8156 14.5196C67.9771 18.239 70.4141 22.8639 72.1091 28.4198L74.022 27.8362C72.2611 22.0641 69.7061 17.185 66.3395 13.2243L64.8156 14.5196ZM72.1153 28.4393C73.9002 33.8881 74.8016 40.1161 74.8016 47.136H76.8016C76.8016 39.9479 75.8789 33.5039 74.0159 27.8167L72.1153 28.4393ZM74.8016 47.136C74.8016 56.8657 73.8474 65.37 71.9537 72.6606L73.8895 73.1634C75.8358 65.67 76.8016 56.9903 76.8016 47.136H74.8016ZM71.9514 72.6695C70.149 79.8794 67.5984 85.8587 64.3211 90.6342L65.9701 91.7658C69.4128 86.7493 72.0462 80.5366 73.8917 73.1545L71.9514 72.6695ZM64.316 90.6416C61.0416 95.5064 57.0379 99.1294 52.3074 101.541L53.2158 103.323C58.2772 100.743 62.5295 96.8776 65.9752 91.7584L64.316 90.6416ZM52.3002 101.545C47.6543 103.961 42.4865 105.176 36.7776 105.176V107.176C42.7806 107.176 48.2689 105.895 53.2229 103.319L52.3002 101.545ZM36.7776 105.176C30.4082 105.176 24.5736 103.726 19.2553 100.834L18.2998 102.59C23.9255 105.65 30.091 107.176 36.7776 107.176V105.176ZM19.2619 100.837C14.0437 97.9485 9.79971 93.8486 6.52573 88.5167L4.82139 89.5633C8.26741 95.1754 12.7595 99.5235 18.2932 102.587L19.2619 100.837ZM6.39644 89.731L15.7564 79.939L14.3107 78.557L4.95069 88.349L6.39644 89.731ZM14.1565 79.7283C16.4473 83.9117 19.5947 87.2117 23.5911 89.6095L24.6201 87.8945C20.9364 85.6843 18.0358 82.6483 15.9107 78.7677L14.1565 79.7283ZM23.585 89.6058C27.6811 92.1034 32.1818 93.352 37.0656 93.352V91.352C32.5413 91.352 28.402 90.2006 24.6262 87.8982L23.585 89.6058ZM37.0656 93.352C44.6017 93.352 50.6158 90.1606 55.0214 83.8526L53.3817 82.7074C49.3393 88.4954 43.9294 91.352 37.0656 91.352V93.352ZM55.0196 83.8552C59.4969 77.4874 61.7755 68.6723 61.9694 57.5214L59.9697 57.4866C59.7796 68.4157 57.5462 76.7846 53.3835 82.7048L55.0196 83.8552ZM60.0634 57.0811C58.1383 61.2064 55.1165 64.4636 50.9653 66.8621L51.9658 68.5939C56.4546 66.0004 59.7689 62.4416 61.8757 57.9269L60.0634 57.0811ZM50.9568 66.8671C46.9042 69.2618 42.2358 70.472 36.9216 70.472V72.472C42.5514 72.472 47.579 71.1862 51.9743 68.5889L50.9568 66.8671ZM36.9216 70.472C32.0474 70.472 27.5184 69.6289 23.325 67.9515L22.5822 69.8085C27.0287 71.5871 31.8117 72.472 36.9216 72.472V70.472ZM23.3425 67.9587C19.1294 66.1799 15.4913 63.7986 12.4177 60.8181L11.0254 62.2539C14.2878 65.4174 18.1377 67.9321 22.5646 69.8012L23.3425 67.9587ZM12.4177 60.8181C9.34418 57.8377 6.92147 54.3449 5.14825 50.3318L3.31888 51.1402C5.19366 55.3831 7.76295 59.0903 11.0254 62.2539L12.4177 60.8181ZM5.15163 50.3396C3.38402 46.2462 2.49756 41.8697 2.49756 37.2H0.497563C0.497563 42.1303 1.43511 46.7778 3.3155 51.1324L5.15163 50.3396ZM38.3616 14.312C35.2526 14.312 32.2864 14.9145 29.4716 16.1209L30.2595 17.9591C32.8208 16.8614 35.5185 16.312 38.3616 16.312V14.312ZM29.4594 16.1262C26.7547 17.3283 24.3488 18.9826 22.2465 21.0849L23.6607 22.4991C25.5903 20.5694 27.7924 19.0557 30.2717 17.9538L29.4594 16.1262ZM22.2294 21.1023C20.2233 23.2088 18.6229 25.6623 17.4264 28.4541L19.2647 29.2419C20.3722 26.6577 21.8439 24.4072 23.6777 22.4817L22.2294 21.1023ZM17.4318 28.4419C16.2201 31.168 15.6176 34.0911 15.6176 37.2H17.6176C17.6176 34.3569 18.167 31.712 19.2594 29.2541L17.4318 28.4419ZM15.6176 37.2C15.6176 40.3089 16.2201 43.232 17.4318 45.9581L19.2594 45.1459C18.167 42.688 17.6176 40.0431 17.6176 37.2H15.6176ZM17.4318 45.9581C18.6294 48.6528 20.2289 51.0531 22.2294 53.1537L23.6777 51.7743C21.8382 49.8429 20.3657 47.6352 19.2594 45.1459L17.4318 45.9581ZM22.2639 53.1881C24.3644 55.1886 26.7648 56.7882 29.4594 57.9858L30.2717 56.1582C27.7824 55.0518 25.5747 53.5794 23.6432 51.7399L22.2639 53.1881ZM29.4716 57.9911C32.2864 59.1974 35.2526 59.8 38.3616 59.8V57.8C35.5185 57.8 32.8208 57.2505 30.2595 56.1529L29.4716 57.9911ZM38.3616 59.8C41.4705 59.8 44.3936 59.1974 47.1197 57.9858L46.3074 56.1582C43.8496 57.2506 41.2047 57.8 38.3616 57.8V59.8ZM47.1075 57.9911C49.9033 56.7929 52.316 55.1878 54.3327 53.1711L52.9185 51.7569C51.0951 53.5802 48.8998 55.0471 46.3196 56.1529L47.1075 57.9911ZM54.3327 53.1711C56.435 51.0688 58.0893 48.6629 59.2914 45.9581L57.4638 45.1459C56.3619 47.6251 54.8481 49.8272 52.9185 51.7569L54.3327 53.1711ZM59.2914 45.9581C60.503 43.232 61.1056 40.3089 61.1056 37.2H59.1056C59.1056 40.0431 58.5561 42.688 57.4638 45.1459L59.2914 45.9581ZM61.1056 37.2C61.1056 34.0911 60.503 31.168 59.2914 28.4419L57.4638 29.2541C58.5561 31.712 59.1056 34.3569 59.1056 37.2H61.1056ZM59.2967 28.4541C58.0959 25.6522 56.441 23.1932 54.3327 21.0849L52.9185 22.4991C54.8422 24.4228 56.3552 26.6678 57.4584 29.2419L59.2967 28.4541ZM54.3497 21.1023C52.3316 18.9834 49.9136 17.3235 47.1075 16.1209L46.3196 17.9591C48.8896 19.0605 51.0795 20.5686 52.9014 22.4817L54.3497 21.1023ZM47.1197 16.1262C44.3936 14.9146 41.4705 14.312 38.3616 14.312V16.312C41.2047 16.312 43.8496 16.8614 46.3074 17.9538L47.1197 16.1262Z" fill="black"/>
</svg>
