<svg width="28" height="35" viewBox="0 0 28 35" fill="none" xmlns="http://www.w3.org/2000/svg">
<path d="M14.0616 35H13.7814V33.5999H14.0616V35ZM14.0616 32.1998H13.7814V30.7997H14.0616V32.1998ZM14.0616 29.3996H13.7814V27.9995H14.0616V29.3996ZM14.0616 26.5994H13.7814V25.1993H14.0616V26.5994ZM14.0616 23.7992H13.7814V22.3991H14.0616V23.7992ZM14.0616 21.0002H13.7814V19.6001H14.0616V21.0002ZM14.0616 18.2001H13.7814V16.8H14.0616V18.2001ZM14.0616 15.3999H13.7814V13.9998H14.0616V15.3999ZM14.0616 12.5997H13.7814V11.1996H14.0616V12.5997ZM14.0616 9.79948H13.7814V8.39938H14.0616V9.79948ZM14.0616 6.99929H13.7814V5.59919H14.0616V6.99929ZM14.0616 4.1991H13.7814V2.799H14.0616V4.1991ZM14.0616 1.40009H13.7814V0H14.0616V1.40009Z" fill="black"/>
<path d="M13.9215 7.84176C19.2806 7.84176 23.6401 12.1987 23.6401 17.5546C23.6401 22.9106 19.2806 27.2675 13.9215 27.2675C8.5623 27.2675 4.20279 22.9106 4.20279 17.5546C4.20279 12.1987 8.5623 7.84176 13.9215 7.84176ZM13.9215 3.64148C6.23296 3.64148 0 9.87072 0 17.5546C0 25.2385 6.23296 31.4678 13.9215 31.4678C21.61 31.4678 27.8429 25.2385 27.8429 17.5546C27.8429 9.87072 21.61 3.64148 13.9215 3.64148Z" fill="black"/>
</svg>
