<svg width="118" height="55" viewBox="0 0 118 55" fill="none" xmlns="http://www.w3.org/2000/svg">
<path d="M50.6262 14.6832L51.3333 13.9915L53.8855 17.3644L53.9527 17.4502H55.1504L52.0385 13.2979L55.0291 9.93051H53.8239L50.6262 13.3836V9.93051H49.6523V17.4502H50.6262V14.6832Z" fill="black"/>
<path d="M57.9732 13.6428C56.2456 13.6596 55.4657 14.6963 55.4732 15.6509C55.4807 16.572 56.2307 17.5621 57.8594 17.5621H57.8855H57.8873C58.3836 17.5509 58.878 17.3868 59.294 17.0922L59.3612 17.4502H60.169V14.0437C60.169 12.4961 58.9694 11.7913 57.8556 11.7913C57.1672 11.7913 56.4732 12.0169 55.9508 12.4103L55.7792 12.5409L56.2885 13.2475L56.462 13.1375C56.9153 12.856 57.3463 12.7236 57.822 12.7236C58.2269 12.7236 59.1467 12.8448 59.2082 13.9243C58.8034 13.7416 58.3705 13.6428 57.9732 13.6428ZM56.4321 15.6341C56.4321 15.3694 56.5609 15.1232 56.7903 14.9368C57.0739 14.7093 57.4862 14.5881 57.9862 14.5881C58.4153 14.5881 58.8594 14.7 59.2157 14.8995V16.0872C58.8985 16.421 58.3594 16.6503 57.8855 16.6503C56.8855 16.6484 56.4321 16.1208 56.4321 15.6341Z" fill="black"/>
<path d="M61.2062 14.4744L61.3163 14.4651L61.2062 14.4781C61.238 14.92 61.2715 15.4216 61.4544 15.8485C61.8928 16.8871 62.8723 17.5303 64.0047 17.5303C64.0439 17.5322 64.0812 17.5322 64.1204 17.5322C64.8163 17.5322 65.4674 17.2749 65.9543 16.8069C66.5159 16.2681 66.8256 15.5092 66.8256 14.6683C66.8163 12.7441 65.417 11.8715 64.0346 11.8622C63.4077 11.8622 62.8088 12.0691 62.3574 12.429C62.5066 12.0729 62.71 11.782 62.9712 11.5433C63.6092 10.9523 64.307 10.9038 65.0868 10.9038C65.4506 10.9038 65.7771 10.7807 65.986 10.5663C66.1838 10.3649 66.279 10.0927 66.2696 9.75898L66.2659 9.54456H65.3797L65.376 9.75898C65.3704 9.95848 65.3163 10.0014 65.0681 10.0014C63.8891 10.0014 63.0831 10.2587 62.3704 10.8684C61.2809 11.8715 61.1354 13.3668 61.2044 14.4464L61.2062 14.4744ZM64.0047 12.6658L64.0234 12.7758C64.8648 12.7851 65.8517 13.2867 65.861 14.6702C65.861 15.8094 65.1017 16.6055 64.0159 16.6055C63.195 16.6055 62.5271 16.1394 62.2734 15.3955C62.1988 15.1456 62.1615 14.9069 62.1615 14.6702C62.1615 14.1164 62.3443 13.6428 62.6894 13.3016C63.0271 12.9678 63.5066 12.7758 64.0066 12.7758V12.6658H64.0047Z" fill="black"/>
<path d="M71.82 13.6018V17.4502H72.7845V11.8827H71.958L69.0495 15.7702V11.8827H68.085V17.4502H68.9301L71.82 13.6018Z" fill="black"/>
<path d="M75.3013 15.1139H77.8703V17.4502H78.8441V11.8827H77.8703V14.2096H75.3013V11.8827H74.3274V17.4502H75.3013V15.1139Z" fill="black"/>
<path d="M82.7621 17.521C83.6296 17.521 84.3609 17.1854 84.8777 16.5496L85.0251 16.365L84.2695 15.8392L84.1408 15.9995C83.8479 16.365 83.333 16.585 82.7621 16.585C81.7397 16.585 81.1613 15.828 81.0177 15.0412H85.3124L85.3367 14.7671C85.346 14.6683 85.3497 14.5918 85.3497 14.4893C85.3497 13.7267 85.0717 13.0331 84.5699 12.5315C84.1016 12.0672 83.4636 11.8118 82.7509 11.8118C80.9878 11.8211 80.0643 13.2326 80.0643 14.6179C80.0569 15.429 80.3722 16.2345 80.9057 16.7733C81.389 17.2637 82.0307 17.521 82.7621 17.521ZM81.0326 14.1592C81.2416 13.2605 81.861 12.7459 82.749 12.7366C83.6352 12.7534 84.2807 13.3072 84.4225 14.1592H81.0326Z" fill="black"/>
<path d="M87.6201 17.4502H88.6051V12.7758H90.3458V11.8827H85.8906V12.7758H87.6201V17.4502Z" fill="black"/>
<path d="M50.5758 29.1277H55.1262V30.6958H56.0515V28.2141H55.5758V21.6081H51.1822L50.9583 25.1675C50.9415 25.3129 50.9303 25.4956 50.921 25.6653L50.8949 26.0363C50.8426 26.7691 50.7699 27.7685 50.1934 28.2253L49.6523 28.3334V30.6958H50.5758V29.1277ZM54.6112 22.4825V28.2141H51.3426C51.7549 27.5858 51.8631 26.6367 51.9116 25.697L52.1038 22.4825H54.6112Z" fill="black"/>
<path d="M59.7157 29.2489C61.2437 29.2489 62.4862 27.9475 62.4862 26.3477C62.4862 24.7498 61.2437 23.4484 59.7157 23.4484C58.1934 23.4484 56.9546 24.7498 56.9546 26.3477C56.9565 27.9493 58.1934 29.2489 59.7157 29.2489ZM57.921 26.3496C57.921 25.0668 58.8464 24.3732 59.7157 24.3732C60.5907 24.3732 61.5198 25.0668 61.5198 26.3496C61.5198 27.6529 60.5907 28.3558 59.7157 28.3558C58.8333 28.3558 57.921 27.6044 57.921 26.3496Z" fill="black"/>
<path d="M64.5179 27.155L65.0441 26.6777L67.0459 29.1277H68.1877L65.697 26.0195L68.1242 23.5602H66.878L64.5179 25.9543V23.5509H63.5833V29.1277H64.5179V27.155Z" fill="black"/>
<path d="M70.9432 29.1277V24.4534H72.6838V23.5602H68.2268V24.4534H69.9581V29.1277H70.9432Z" fill="black"/>
<path d="M78.734 26.3496C78.734 24.7517 77.4915 23.4502 75.9635 23.4502C74.4412 23.4502 73.2024 24.7517 73.2024 26.3496C73.2024 27.9493 74.4412 29.2508 75.9635 29.2508C77.4915 29.2489 78.734 27.9493 78.734 26.3496ZM77.7676 26.3496C77.7676 27.6529 76.8385 28.3558 75.9635 28.3558C75.0811 28.3558 74.1688 27.6044 74.1688 26.3496C74.1688 25.0668 75.0942 24.3732 75.9635 24.3732C76.8385 24.3732 77.7676 25.0668 77.7676 26.3496Z" fill="black"/>
<path d="M84.5325 26.3365C84.5214 24.9847 83.693 23.5304 81.8908 23.5304C81.4654 23.5304 81.068 23.6441 80.7304 23.8604L80.68 23.5602H79.8274V31.1116H80.7826V28.8835C81.1651 29.1259 81.5998 29.1799 81.9169 29.1799C81.9374 29.1799 81.958 29.1799 81.971 29.1781C83.7471 29.1576 84.5437 27.6902 84.5325 26.3365ZM83.5736 26.3869C83.555 27.2744 83.0139 28.2402 81.874 28.2644C81.4374 28.2644 81.1035 28.091 80.7975 27.7014V24.884C81.068 24.5932 81.4654 24.431 81.9188 24.431L81.9803 24.4328C83.1016 24.5055 83.5923 25.4975 83.5736 26.3869Z" fill="black"/>
<path d="M89.2377 29.1277H90.0455V25.7212C90.0455 24.1737 88.8459 23.4689 87.7302 23.4689C87.0399 23.4689 86.3459 23.6945 85.8254 24.0879L85.6538 24.2184L86.1649 24.9213L86.3385 24.8132C86.7899 24.5317 87.2228 24.4011 87.7004 24.4011C88.1034 24.4011 89.0231 24.5223 89.0865 25.6C88.6817 25.4173 88.2489 25.3185 87.8496 25.3185C86.122 25.3353 85.3422 26.372 85.3497 27.3266C85.3571 28.2477 86.1071 29.2377 87.7358 29.2377H87.7619H87.7638C88.2601 29.2266 88.7526 29.0606 89.1705 28.766L89.2377 29.1277ZM89.0884 26.5752V27.7629C88.7713 28.0966 88.2321 28.326 87.7582 28.326C86.7601 28.326 86.3049 27.8002 86.3049 27.3117C86.3049 27.0469 86.4336 26.8008 86.6631 26.6143C86.9467 26.3869 87.359 26.2657 87.8589 26.2657C88.2899 26.2657 88.7339 26.3775 89.0884 26.5752Z" fill="black"/>
<path d="M55.1355 34.5386C54.7624 35.3888 54.35 36.3677 53.9862 37.231C53.6691 37.9843 53.3426 38.758 53.031 39.4759L50.9042 34.5405L50.8464 34.4081H49.6523V41.9389H50.6281V36.2987L52.5646 40.7251L52.6225 40.8556H53.4471L55.4396 36.3024L55.4303 41.7189L55.4284 41.9389H56.406V34.4081H55.1914L55.1355 34.5386Z" fill="black"/>
<path d="M60.4434 36.2596C58.921 36.2596 57.6841 37.561 57.6841 39.1589C57.6841 40.7587 58.921 42.0601 60.4434 42.0601C61.9713 42.0601 63.2139 40.7587 63.2139 39.1589C63.2157 37.561 61.9732 36.2596 60.4434 36.2596ZM62.2493 39.1589C62.2493 40.4622 61.3184 41.1652 60.4434 41.1652C59.5609 41.1652 58.6486 40.4137 58.6486 39.1589C58.6486 37.8761 59.574 37.1825 60.4434 37.1825C61.3184 37.1844 62.2493 37.8761 62.2493 39.1589Z" fill="black"/>
<path d="M66.3817 36.3398H66.3723C66.1205 36.3398 65.6559 36.3845 65.2119 36.6698L65.1615 36.3696H64.3108V43.9209H65.266V41.6947C65.7511 42.0023 66.2921 41.9986 66.4563 41.9893C68.2305 41.9669 69.0253 40.4995 69.0141 39.1477C69.0029 37.796 68.1746 36.3398 66.3817 36.3398ZM68.0533 39.1962C68.0346 40.0837 67.4936 41.0496 66.3537 41.0738C65.9171 41.0738 65.5832 40.9004 65.2772 40.5107V37.6934C65.5477 37.4025 65.9451 37.2422 66.3985 37.2422L66.4619 37.2441C67.5813 37.3149 68.0719 38.3068 68.0533 39.1962Z" fill="black"/>
<path d="M74.919 36.3715H70.5422V39.4237C70.5422 40.1304 70.5105 40.7829 70.1355 41.0365H69.5515V43.2255H70.4955V41.939H74.4003V43.2236H75.335V41.0347H74.9209V36.3715H74.919ZM73.9544 37.2254V41.0365H71.225C71.4974 40.52 71.4974 39.8451 71.4974 39.4237V37.2254H73.9544Z" fill="black"/>
<path d="M80.9988 37.9041C80.9895 36.929 80.2265 36.3715 78.9056 36.3715H76.6836V41.939H78.9895C79.4429 41.9352 80.2768 41.8495 80.7768 41.3255C81.0473 41.0421 81.1761 40.6785 81.1611 40.2441C81.1481 39.8488 80.9447 39.3174 80.4354 39.021C80.7917 38.7581 80.9988 38.3535 80.9988 37.9041ZM77.6388 39.4908H78.8571C79.1985 39.4908 79.4895 39.5374 79.7209 39.6288C80.0063 39.7351 80.2022 39.9887 80.2171 40.2721C80.2227 40.4436 80.1705 40.5909 80.0585 40.7065C79.8552 40.9191 79.4541 41.0458 78.9895 41.0458H77.6388V39.4908ZM79.5959 38.5306C79.4391 38.5903 79.2377 38.6182 78.9578 38.6182H77.6388V37.2664H78.9074C79.3216 37.2664 80.0175 37.3522 80.0343 37.9134C80.0399 38.1857 79.8141 38.4336 79.5959 38.5306Z" fill="black"/>
<path d="M83.4951 40.259V36.3715H82.5305V41.939H83.3757L86.2655 38.0887V41.939H87.2301V36.3715H86.4055L83.4951 40.259Z" fill="black"/>
<path d="M92.3161 38.6965H89.7489V36.3715H88.7732V41.939H89.7489V39.6008H92.3161V41.939H93.2899V36.3715H92.3161V38.6965Z" fill="black"/>
<path d="M99.411 36.3715H98.4352V41.0235H95.8588V36.3715H94.8831V41.939H98.9222V43.2236H99.8252L99.8382 41.0235H99.411V36.3715Z" fill="black"/>
<path d="M103.46 36.3006H103.437C101.674 36.3099 100.751 37.7195 100.751 39.1067C100.743 39.9197 101.058 40.7251 101.592 41.2621C102.077 41.7506 102.719 42.0079 103.45 42.0079C104.318 42.0079 105.049 41.6723 105.566 41.0365L105.715 40.8519L104.958 40.3261L104.829 40.4865C104.536 40.8519 104.021 41.0719 103.45 41.0719C102.428 41.0719 101.849 40.3149 101.708 39.5281H106.002L106.027 39.254C106.036 39.1571 106.04 39.0806 106.04 38.9762C106.04 38.2136 105.762 37.52 105.26 37.0184C104.788 36.556 104.152 36.3006 103.46 36.3006ZM101.721 38.6462C101.93 37.7475 102.549 37.2329 103.435 37.2235C104.321 37.2403 104.967 37.7941 105.109 38.6462H101.721Z" fill="black"/>
<path d="M111.581 37.9041C111.573 36.929 110.81 36.3715 109.489 36.3715H107.265V41.939H109.571C110.025 41.9352 110.859 41.8495 111.359 41.3237C111.629 41.0403 111.758 40.6785 111.741 40.2422C111.728 39.847 111.527 39.3156 111.017 39.0191C111.374 38.7581 111.581 38.3535 111.581 37.9041ZM108.221 39.4908H109.439C109.78 39.4908 110.071 39.5374 110.303 39.6288C110.588 39.7332 110.782 39.9868 110.799 40.2721C110.805 40.4436 110.752 40.589 110.64 40.7046C110.437 40.9172 110.036 41.044 109.569 41.044H108.219V39.4908H108.221ZM110.18 38.5306C110.023 38.5903 109.821 38.6182 109.541 38.6182H108.221V37.2664H109.489C109.903 37.2664 110.599 37.3522 110.616 37.9134C110.624 38.1857 110.396 38.4336 110.18 38.5306Z" fill="black"/>
<path d="M115.064 36.2801C114.372 36.2801 113.678 36.5076 113.159 36.901L112.989 37.0315L113.497 37.7344L113.67 37.6263C114.124 37.3447 114.556 37.2142 115.032 37.2142C115.435 37.2142 116.355 37.3354 116.418 38.4113C116.013 38.2304 115.581 38.1316 115.181 38.1316C113.454 38.1484 112.674 39.185 112.681 40.1397C112.689 41.0608 113.439 42.0508 115.068 42.0508H115.094H115.096C115.592 42.0396 116.086 41.8737 116.502 41.581L116.569 41.939H117.377V38.5324C117.379 36.9849 116.18 36.2801 115.064 36.2801ZM116.424 39.3845V40.5723C116.105 40.906 115.566 41.1353 115.094 41.1353C114.096 41.1353 113.642 40.6095 113.642 40.1229C113.642 39.86 113.771 39.612 114 39.4256C114.284 39.1981 114.696 39.0769 115.196 39.0769C115.624 39.075 116.066 39.1888 116.424 39.3845Z" fill="black"/>
<path d="M22.0968 55H21.6565V52.7999H22.0968V55ZM22.0968 50.5997H21.6565V48.3996H22.0968V50.5997ZM22.0968 46.1994H21.6565V43.9993H22.0968V46.1994ZM22.0968 41.7991H21.6565V39.599H22.0968V41.7991ZM22.0968 37.3988H21.6565V35.1987H22.0968V37.3988ZM22.0968 33.0004H21.6565V30.8002H22.0968V33.0004ZM22.0968 28.6001H21.6565V26.3999H22.0968V28.6001ZM22.0968 24.1998H21.6565V21.9996H22.0968V24.1998ZM22.0968 19.7995H21.6565V17.5993H22.0968V19.7995ZM22.0968 15.3992H21.6565V13.199H22.0968V15.3992ZM22.0968 10.9989H21.6565V8.79873H22.0968V10.9989ZM22.0968 6.59858H21.6565V4.39843H22.0968V6.59858ZM22.0968 2.20015H21.6565V0H22.0968V2.20015Z" fill="black"/>
<path d="M21.8766 12.3227C30.2981 12.3227 37.1488 19.1693 37.1488 27.5858C37.1488 36.0023 30.2981 42.8488 21.8766 42.8488C13.455 42.8488 6.60439 36.0023 6.60439 27.5858C6.60439 19.1693 13.455 12.3227 21.8766 12.3227ZM21.8766 5.72226C9.79465 5.72226 0 15.5111 0 27.5858C0 39.6605 9.79465 49.4493 21.8766 49.4493C33.9585 49.4493 43.7531 39.6605 43.7531 27.5858C43.7531 15.5111 33.9585 5.72226 21.8766 5.72226Z" fill="black"/>
</svg>
